<svg width="100" height="34" viewBox="0 0 100 34" fill="none" xmlns="http://www.w3.org/2000/svg">
<path d="M98.9856 16.6495C98.7402 16.0536 98.4247 15.5278 98.0041 15.1072C97.6186 14.6866 97.1278 14.3361 96.567 14.0557C96.0062 13.7753 95.4103 13.5299 94.8144 13.3196L93.0969 12.7237C92.6412 12.5835 92.1856 12.4082 91.8 12.268C91.4144 12.1278 91.0289 11.9175 90.7485 11.7072C90.433 11.4969 90.1876 11.2165 90.0124 10.901C89.8371 10.5856 89.732 10.2351 89.732 9.77938C89.732 8.93814 90.0825 8.34227 90.8186 7.99175C91.5546 7.64124 92.3959 7.50103 93.3423 7.50103C94.2536 7.50103 95.0948 7.60619 95.866 7.78144C96.6371 7.99175 97.3381 8.16701 97.899 8.37732C98.1093 7.9567 98.2845 7.46598 98.4247 6.94021C98.5649 6.41443 98.6701 5.92371 98.7052 5.39794C97.9691 5.15258 97.1278 4.90722 96.1814 4.73196C95.2 4.52165 94.2186 4.45155 93.2371 4.45155C90.8186 4.45155 88.9608 4.97732 87.734 5.99381C86.4722 7.01031 85.8763 8.41237 85.8763 10.1649C85.8763 11.4619 86.2619 12.5134 86.9979 13.2845C87.734 14.0557 88.9608 14.7567 90.6082 15.3876L91.9753 15.8784C92.466 16.0186 92.9216 16.1938 93.3423 16.3691C93.7629 16.5443 94.1485 16.7196 94.4639 16.9649C94.7794 17.2103 95.0598 17.4907 95.2351 17.8062C95.4454 18.1567 95.5155 18.5773 95.5155 19.068C95.5155 19.5237 95.4103 19.9443 95.1649 20.3299C94.9196 20.7155 94.6041 21.0309 94.1835 21.2763C93.7979 21.5216 93.3072 21.732 92.7814 21.8722C92.2557 22.0124 91.6598 22.0825 91.0639 22.0825C90.2227 22.0825 89.4165 22.0124 88.5753 21.8371C87.734 21.6619 86.9629 21.4515 86.2619 21.1711C86.0515 21.6969 85.8763 22.2227 85.701 22.7485C85.5258 23.2742 85.4206 23.8 85.3856 24.3258C86.1917 24.6062 87.033 24.8515 87.9794 24.9918C88.8907 25.167 89.9773 25.2371 91.2392 25.2371C92.466 25.2371 93.5526 25.0969 94.5691 24.7814C95.5856 24.466 96.4268 24.0454 97.1278 23.4845C97.8289 22.9237 98.3897 22.2577 98.7753 21.4866C99.1608 20.7155 99.3711 19.8392 99.3711 18.8928C99.3711 17.9814 99.2309 17.2454 98.9856 16.6495ZM82.8619 4.80206C82.5113 4.76701 82.1959 4.76701 81.9155 4.76701C81.635 4.76701 81.3196 4.76701 80.9691 4.80206C80.6186 4.83711 80.3031 4.87216 80.0227 4.90722V21.5567C79.1113 21.8371 77.9897 21.9773 76.6577 21.9773C75.7814 21.9773 75.0103 21.8722 74.3443 21.6969C73.6784 21.5217 73.1175 21.2062 72.6268 20.7155C72.1711 20.2598 71.8206 19.6289 71.5753 18.7876C71.3299 17.9814 71.2247 16.9649 71.2247 15.7031V4.90722C70.9443 4.87216 70.6289 4.80206 70.2433 4.80206C69.8928 4.76701 69.5773 4.76701 69.2619 4.76701C69.0165 4.76701 68.701 4.76701 68.3505 4.80206C68 4.83711 67.6845 4.87216 67.3691 4.90722V15.9134C67.3691 17.9113 67.6144 19.4887 68.1052 20.7155C68.5959 21.9423 69.2619 22.8536 70.1031 23.5196C70.9443 24.1856 71.9258 24.6412 73.0474 24.8515C74.1691 25.0619 75.3608 25.167 76.6227 25.167C77.9546 25.167 79.2515 25.0619 80.5134 24.8165C81.7753 24.5711 82.8268 24.3258 83.7381 24.0804V4.90722C83.5278 4.87216 83.2124 4.80206 82.8619 4.80206ZM30.1093 5.60825C30.0742 5.36289 30.0392 5.11753 30.0041 4.87216C29.8639 4.83711 29.6536 4.83711 29.4433 4.80206C29.233 4.80206 29.0227 4.76701 28.8124 4.76701C27.4103 4.76701 26.2887 5.08247 25.3773 5.74845C24.501 6.37938 23.7649 7.15052 23.2392 8.0268C23.2392 7.60619 23.2041 7.04536 23.134 6.41443C23.0639 5.7835 22.9938 5.25773 22.8887 4.87216C22.6433 4.83711 22.3979 4.76701 22.1175 4.76701C21.8371 4.73196 21.5567 4.73196 21.2763 4.73196C20.9959 4.73196 20.7155 4.73196 20.4701 4.76701C20.2247 4.80206 19.9443 4.83711 19.6639 4.87216V24.7113C19.9794 24.7464 20.2948 24.8165 20.6454 24.8165C20.9959 24.8515 21.3113 24.8515 21.5918 24.8515C21.8722 24.8515 22.1876 24.8515 22.5381 24.8165C22.8887 24.7814 23.2041 24.7464 23.4845 24.7113V14.8969C23.4845 13.5649 23.6247 12.4783 23.9402 11.6021C24.2206 10.7608 24.6412 10.0948 25.132 9.60412C25.6227 9.1134 26.2186 8.76289 26.8495 8.58763C27.4804 8.37732 28.1464 8.30722 28.8474 8.30722H29.3732C29.5835 8.30722 29.7938 8.34227 30.0041 8.37732C30.0392 8.06186 30.1093 7.74639 30.1443 7.39588C30.1794 7.04536 30.2144 6.7299 30.2144 6.41443C30.1443 6.13402 30.1443 5.85361 30.1093 5.60825ZM17.1052 9.91959C16.7196 8.65773 16.1588 7.64124 15.4577 6.83505C14.7567 6.02887 13.9155 5.43299 12.899 5.04742C11.9175 4.66186 10.8309 4.45155 9.67423 4.45155C8.90309 4.45155 8.20206 4.5567 7.57113 4.73196C6.94021 4.90722 6.37938 5.15258 5.85361 5.46804C5.36289 5.7835 4.90722 6.13402 4.5567 6.51959C4.20619 6.90515 3.89072 7.29072 3.64536 7.71134C3.64536 7.64124 3.61031 7.46598 3.57526 7.18557C3.54021 6.90515 3.50515 6.58969 3.4701 6.30928C3.43505 5.99381 3.4 5.7134 3.36495 5.43299C3.3299 5.15258 3.29485 5.01237 3.25979 4.94227C3.01443 4.90722 2.73402 4.83711 2.45361 4.83711C2.1732 4.80206 1.89278 4.80206 1.64742 4.80206C1.36701 4.80206 1.0866 4.80206 0.806186 4.83711C0.525773 4.80206 0.245361 4.87216 0 4.90722V33.8598C0.280412 33.8948 0.595876 33.9649 0.946392 33.9649C1.29691 34 1.61237 34 1.89278 34C2.1732 34 2.48866 34 2.83918 33.9649C3.18969 33.9299 3.50515 33.8948 3.82062 33.8598V24.7814C4.24124 24.9216 4.76701 25.0268 5.36289 25.0969C5.95876 25.167 6.51959 25.2021 7.11546 25.2021C10.4804 25.2021 13.1093 24.2557 14.932 22.3278C16.7897 20.4 17.701 17.7361 17.701 14.3361C17.701 12.6536 17.4907 11.1814 17.1052 9.91959ZM13.2144 17.8412C12.899 18.7876 12.4433 19.5588 11.8825 20.1897C11.3216 20.8206 10.6557 21.2763 9.88454 21.5567C9.1134 21.8371 8.27216 22.0124 7.32577 22.0124C6.48454 22.0124 5.81856 21.9773 5.32784 21.9072C4.80206 21.8371 4.31134 21.6969 3.82062 21.5217V13.4598C3.82062 12.4784 3.96082 11.6371 4.24124 10.9361C4.52165 10.2351 4.90722 9.63918 5.36289 9.18351C5.81856 8.72783 6.34433 8.37732 6.94021 8.13196C7.53608 7.8866 8.16701 7.78144 8.79794 7.78144C10.5155 7.78144 11.7773 8.37732 12.5134 9.60412C13.2845 10.8309 13.6701 12.4433 13.6701 14.5113C13.6701 15.7732 13.5299 16.8948 13.2144 17.8412ZM64.635 4.90722V24.7464C64.3546 24.7814 64.0392 24.8515 63.6887 24.8515C63.3381 24.8866 63.0227 24.8866 62.7423 24.8866C62.4969 24.8866 62.1814 24.8866 61.8309 24.8515C61.4804 24.8165 61.1649 24.7814 60.8845 24.7464V7.9567H53.6289V17C53.6289 18.0866 53.6639 18.9629 53.7691 19.5938C53.8742 20.2247 54.0144 20.7505 54.2247 21.066C54.4351 21.4165 54.7505 21.6619 55.101 21.767C55.4866 21.8722 55.9423 21.9423 56.5031 21.9423C56.9237 21.9423 57.3443 21.9072 57.7299 21.8371C58.1155 21.767 58.466 21.6969 58.7814 21.6268C58.9567 22.1526 59.0619 22.6783 59.0969 23.2041C59.132 23.7299 59.167 24.2206 59.167 24.6412C58.6412 24.7814 58.1155 24.8515 57.5546 24.9216C56.9938 24.9918 56.3979 25.0268 55.732 25.0268C53.8742 25.0268 52.4371 24.5711 51.3856 23.6598C50.334 22.7485 49.8082 21.2763 49.8082 19.1732V7.9567H46.7938L46.6536 7.43093L53.3134 0H53.6289V4.90722H64.635Z" fill="white"/>
<path d="M35.367 20.5403C36.4536 21.5568 38.0309 22.0475 40.0989 22.0475C41.9216 22.0475 43.6742 21.7321 45.3216 21.0661C45.5319 21.4517 45.7072 21.9073 45.8123 22.4682C45.9525 23.029 46.0226 23.5548 46.0577 24.1156C45.2165 24.4661 44.2701 24.7465 43.2536 24.9218C42.2371 25.097 41.1154 25.2022 39.8886 25.2022C38.101 25.2022 36.5237 24.9568 35.2618 24.4661C33.9649 23.9754 32.9134 23.2393 32.0721 22.3279C31.2309 21.4166 30.635 20.33 30.2494 19.0682C29.8639 17.8063 29.6536 16.4393 29.6536 14.9671C29.6536 13.495 29.8288 12.1279 30.2144 10.8661C30.6 9.60424 31.1608 8.48259 31.9319 7.5362C32.7031 6.5898 33.6845 5.85372 34.8412 5.2929C35.9979 4.73207 37.4 4.45166 39.0123 4.45166C40.3793 4.45166 41.5711 4.69702 42.6226 5.15269C43.6391 5.60836 44.5154 6.23929 45.2165 7.08053C45.9175 7.88671 46.4433 8.86816 46.7938 9.9898C47.1443 11.1115 47.3196 12.3383 47.3196 13.6352C47.3196 13.9857 47.3196 14.3712 47.2845 14.7919C47.2494 15.1774 47.2494 15.5279 47.2144 15.8084H37.2948L39.6783 12.9341H43.534C43.534 12.1981 43.4288 11.5321 43.2536 10.8661C43.0433 10.2001 42.7628 9.63929 42.4123 9.14857C42.0268 8.65785 41.5711 8.27228 40.9752 7.95682C40.3793 7.6764 39.7134 7.50114 38.9072 7.50114C37.3299 7.50114 36.1381 7.99187 35.2969 8.93826C32.9484 11.5671 32.8082 18.1218 35.367 20.5403Z" fill="url(#paint0_linear)"/>
<defs>
<linearGradient id="paint0_linear" x1="29.6536" y1="14.8269" x2="47.3196" y2="14.8269" gradientUnits="userSpaceOnUse">
<stop stop-color="#0155FB"/>
<stop offset="1" stop-color="#387CFF"/>
</linearGradient>
</defs>
</svg>
